<?xml version="1.0" encoding="UTF-8" standalone="no"?>
<svg
   width="401.82617"
   height="863.31934"
   xml:space="preserve"
   overflow="hidden"
   version="1.1"
   id="svg20"
   sodipodi:docname="FAIRprinciples-R.svg"
   inkscape:version="1.4 (e7c3feb1, 2024-10-09)"
   xmlns:inkscape="http://www.inkscape.org/namespaces/inkscape"
   xmlns:sodipodi="http://sodipodi.sourceforge.net/DTD/sodipodi-0.dtd"
   xmlns="http://www.w3.org/2000/svg"
   xmlns:svg="http://www.w3.org/2000/svg"><defs
     id="defs20" /><sodipodi:namedview
     id="namedview20"
     pagecolor="#ffffff"
     bordercolor="#000000"
     borderopacity="0.25"
     inkscape:showpageshadow="2"
     inkscape:pageopacity="0.0"
     inkscape:pagecheckerboard="0"
     inkscape:deskcolor="#d1d1d1"
     inkscape:zoom="0.38220666"
     inkscape:cx="-160.90771"
     inkscape:cy="291.72699"
     inkscape:window-width="1712"
     inkscape:window-height="982"
     inkscape:window-x="0"
     inkscape:window-y="35"
     inkscape:window-maximized="1"
     inkscape:current-layer="svg20"
     showgrid="false" /><g
     id="g13"
     transform="translate(-2978.8843,-940.07324)"><g
       id="g12"><g
         id="g11"><path
           d="m 3057.15,1553.1 c 2.59,5 7.55,8.33 13.16,8.84 h 61.88 v 27.5 h -61.88 c -15.67,-0.29 -30.01,-8.89 -37.64,-22.59 -7.31,-13.22 -6.67,-29.4 1.65,-42 l 35.75,-61.88 -23.58,-13.75 57.54,-15.4 15.4,57.55 -25.05,-14.41 -35.89,62.22 c -3.07,4.01 -3.58,9.41 -1.34,13.92 z"
           stroke="#0c3450"
           stroke-width="3.4375"
           fill="#d2691e"
           id="path9" /><path
           d="m 3105.79,1411.17 28.77,-53.73 c 7.55,-13.58 21.9,-21.96 37.43,-21.86 15.11,0.31 28.8,8.97 35.55,22.48 l 35.75,61.87 23.58,-13.75 -15.4,57.72 -57.41,-15.4 25.03,-14.47 -36.06,-62.25 c -1.96,-4.65 -6.38,-7.8 -11.41,-8.12 -5.31,0.27 -10.1,3.22 -12.72,7.84 l -28.81,53.73 z"
           stroke="#0c3450"
           stroke-width="3.4375"
           fill="#d2691e"
           id="path10" /><path
           d="m 3306.09,1569.6 c -7.52,12.61 -21.24,20.2 -35.92,19.84 h -72.67 v 27.5 l -42.25,-42.97 42.25,-41.8 v 29.77 h 71.74 c 5.16,0.34 10.07,-2.24 12.72,-6.67 2.57,-4.7 2.41,-10.41 -0.41,-14.95 l -31.46,-53.63 24.31,-14.13 31.48,53.59 c 1.78,3.13 3.18,6.45 4.16,9.9 l 0.59,2.27 c 2.6,10.62 0.97,21.84 -4.54,31.28 z"
           stroke="#0c3450"
           stroke-width="3.4375"
           fill="#d2691e"
           id="path11" /></g></g></g><text
     fill="#0c3450"
     font-family="'ADLaM Display', 'ADLaM Display_MSFontService', sans-serif"
     font-weight="400"
     font-size="330px"
     id="text13"
     x="54.345703"
     y="239.92676">R</text><text
     fill="#0c3450"
     font-family="'ADLaM Display', 'ADLaM Display_MSFontService', sans-serif"
     font-weight="400"
     font-size="92px"
     id="text17"
     x="-8.984375"
     y="861.92676">Reusable</text></svg>
