<?xml version="1.0" encoding="UTF-8" standalone="no"?>
<svg
   width="614.8457"
   height="872.43457"
   xml:space="preserve"
   overflow="hidden"
   version="1.1"
   id="svg20"
   sodipodi:docname="FAIRprinciples-I.svg"
   inkscape:version="1.4 (e7c3feb1, 2024-10-09)"
   xmlns:inkscape="http://www.inkscape.org/namespaces/inkscape"
   xmlns:sodipodi="http://sodipodi.sourceforge.net/DTD/sodipodi-0.dtd"
   xmlns="http://www.w3.org/2000/svg"
   xmlns:svg="http://www.w3.org/2000/svg"><sodipodi:namedview
     id="namedview1"
     pagecolor="#ffffff"
     bordercolor="#000000"
     borderopacity="0.25"
     inkscape:showpageshadow="2"
     inkscape:pageopacity="0.0"
     inkscape:pagecheckerboard="0"
     inkscape:deskcolor="#d1d1d1"
     showgrid="false"
     inkscape:zoom="0.36036364"
     inkscape:cx="-51.337033"
     inkscape:cy="387.10898"
     inkscape:window-width="1712"
     inkscape:window-height="982"
     inkscape:window-x="0"
     inkscape:window-y="35"
     inkscape:window-maximized="1"
     inkscape:current-layer="svg20" /><defs
     id="defs20" /><g
     id="g9"
     transform="translate(-2123.2443,-940.07324)"><g
       id="g8"><g
         id="g7"><path
           d="m 2458.84,1439.22 c -14.43,0 -25.78,-11.69 -25.78,-25.78 0,-14.1 11.69,-25.78 25.78,-25.78 14.44,0 25.78,11.68 25.78,25.78 0,14.09 -11.68,25.78 -25.78,25.78 z m 58.1,-41.94 c -1.38,-4.81 -3.1,-9.28 -5.5,-13.4 l 5.5,-16.16 -12.38,-12.38 -16.15,5.5 c -4.13,-2.4 -8.6,-4.12 -13.41,-5.5 l -7.56,-15.12 h -17.19 l -7.56,15.12 c -4.81,1.38 -9.28,3.1 -13.41,5.5 l -16.16,-5.5 -12.37,12.38 5.5,16.16 c -2.41,4.12 -4.13,8.59 -5.5,13.4 l -15.13,7.56 v 17.19 l 15.13,7.56 c 1.37,4.82 3.09,9.29 5.5,13.41 l -5.5,16.16 12.03,12.03 16.16,-5.5 c 4.12,2.4 8.59,4.12 13.4,5.5 l 7.57,15.12 h 17.18 l 7.57,-15.12 c 4.81,-1.38 9.28,-3.1 13.4,-5.5 l 16.16,5.5 12.37,-12.03 -5.5,-16.16 c 2.41,-4.12 4.47,-8.94 5.85,-13.41 l 15.12,-7.56 v -17.19 z"
           stroke="#0c3450"
           stroke-width="3.4375"
           fill="#d2691e"
           id="path6" /><path
           d="m 2381.16,1564.34 c -14.44,0 -25.78,-11.68 -25.78,-25.78 0,-14.43 11.68,-25.78 25.78,-25.78 14.43,0 25.78,11.69 25.78,25.78 0,14.1 -11.35,25.78 -25.78,25.78 z m 52.59,-55.34 5.5,-16.16 -12.37,-12.37 -16.16,5.5 c -4.13,-2.41 -8.94,-4.13 -13.41,-5.5 l -7.56,-15.13 h -17.19 l -7.56,15.13 c -4.81,1.37 -9.28,3.09 -13.41,5.5 l -16.15,-5.5 -12.03,12.03 5.15,16.16 c -2.4,4.12 -4.12,8.93 -5.5,13.4 l -15.12,7.57 v 17.18 l 15.12,7.57 c 1.38,4.81 3.1,9.28 5.5,13.4 l -5.15,16.16 12.03,12.03 16.15,-5.16 c 4.13,2.41 8.6,4.13 13.41,5.5 l 7.56,15.13 h 17.19 l 7.56,-15.13 c 4.81,-1.37 9.28,-3.09 13.41,-5.5 l 16.16,5.5 12.03,-12.37 -5.16,-15.81 c 2.41,-4.13 4.13,-8.6 5.5,-13.41 l 15.13,-7.56 v -17.19 l -15.13,-7.56 c -1.37,-4.82 -3.09,-9.28 -5.5,-13.41 z"
           stroke="#0c3450"
           stroke-width="3.4375"
           fill="#d2691e"
           id="path7" /></g></g></g><text
     fill="#0c3450"
     font-family="'ADLaM Display', 'ADLaM Display_MSFontService', sans-serif"
     font-weight="400"
     font-size="330px"
     id="text9"
     x="243.47571"
     y="239.92676">I</text><text
     fill="#0c3450"
     font-family="'ADLaM Display', 'ADLaM Display_MSFontService', sans-serif"
     font-weight="400"
     font-size="92px"
     id="text16"
     x="-6.1542969"
     y="853.92676">Interoperable</text></svg>
