<svg width="2750" height="1129" xmlns="http://www.w3.org/2000/svg" xmlns:xlink="http://www.w3.org/1999/xlink" xml:space="preserve" overflow="hidden"><g transform="translate(-697 -763)"><g><g><g><path d="M1140.91 1570.88 1097.94 1527.91C1092.09 1522.06 1084.19 1520 1076.62 1521.38L1061.5 1506.25C1074.91 1489.06 1082.81 1467.06 1082.81 1443.69 1082.81 1386.97 1036.41 1340.56 979.688 1340.56 922.969 1340.56 876.562 1386.97 876.562 1443.69 876.562 1500.41 922.969 1546.81 979.688 1546.81 1003.06 1546.81 1024.72 1538.91 1042.25 1525.5L1057.38 1540.63C1056 1548.19 1058.06 1556.09 1063.91 1561.94L1106.88 1604.91C1111.69 1609.72 1117.88 1612.13 1124.06 1612.13 1130.25 1612.13 1136.44 1609.72 1141.25 1604.91 1150.19 1595.28 1150.19 1580.16 1140.91 1570.88ZM979.344 1525.84C933.969 1525.84 896.844 1488.72 896.844 1443.34 896.844 1397.97 933.969 1360.84 979.344 1360.84 1024.72 1360.84 1061.84 1397.97 1061.84 1443.34 1061.84 1488.72 1024.72 1525.84 979.344 1525.84Z" stroke="#0C3450" stroke-width="3.4375" fill="#D2691E"/></g></g></g><text fill="#0C3450" font-family="ADLaM Display,ADLaM Display_MSFontService,sans-serif" font-weight="400" font-size="330" transform="matrix(1 0 0 1 895.665 1180)">F</text><g><g><g><path d="M1669 1316.81 1669 1316.81C1598.87 1316.81 1541.81 1373.88 1541.81 1444 1541.81 1514.13 1598.87 1571.19 1669 1571.19 1739.12 1571.19 1796.19 1514.13 1796.19 1444 1796.19 1373.88 1739.12 1316.81 1669 1316.81ZM1789.31 1440.56 1734.31 1440.56C1733.28 1394.16 1713 1350.84 1680 1324.38 1740.5 1329.88 1787.25 1379.72 1789.31 1440.56ZM1665.56 1440.56 1610.56 1440.56C1611.59 1394.5 1632.22 1351.88 1665.56 1327.13L1665.56 1440.56ZM1665.56 1447.44 1665.56 1560.88C1632.22 1535.78 1611.59 1493.16 1610.56 1447.44L1665.56 1447.44ZM1672.44 1447.44 1727.44 1447.44C1726.41 1493.5 1705.78 1536.13 1672.44 1560.88L1672.44 1447.44ZM1672.44 1440.56 1672.44 1327.13C1705.78 1352.22 1726.41 1394.84 1727.44 1440.56L1672.44 1440.56ZM1658 1324.38C1625 1350.84 1604.72 1394.16 1603.69 1440.56L1548.69 1440.56C1550.75 1379.72 1597.5 1329.88 1658 1324.38ZM1548.69 1447.44 1603.69 1447.44C1604.72 1493.84 1625 1537.16 1658 1563.63 1597.5 1558.13 1550.75 1508.28 1548.69 1447.44ZM1680 1563.63C1713 1537.16 1733.28 1493.84 1734.31 1447.44L1789.31 1447.44C1787.59 1507.59 1741.87 1557.09 1682.41 1563.63 1681.37 1563.63 1680 1563.63 1680 1563.63Z" fill="#0C3450"/></g></g></g><text fill="#0C3450" font-family="ADLaM Display,ADLaM Display_MSFontService,sans-serif" font-weight="400" font-size="330" transform="matrix(1 0 0 1 1552.43 1180)">A</text><g><g><g><path d="M2458.84 1439.22C2444.41 1439.22 2433.06 1427.53 2433.06 1413.44 2433.06 1399.34 2444.75 1387.66 2458.84 1387.66 2473.28 1387.66 2484.62 1399.34 2484.62 1413.44 2484.62 1427.53 2472.94 1439.22 2458.84 1439.22ZM2516.94 1397.28C2515.56 1392.47 2513.84 1388 2511.44 1383.88L2516.94 1367.72 2504.56 1355.34 2488.41 1360.84C2484.28 1358.44 2479.81 1356.72 2475 1355.34L2467.44 1340.22 2450.25 1340.22 2442.69 1355.34C2437.88 1356.72 2433.41 1358.44 2429.28 1360.84L2413.12 1355.34 2400.75 1367.72 2406.25 1383.88C2403.84 1388 2402.12 1392.47 2400.75 1397.28L2385.62 1404.84 2385.62 1422.03 2400.75 1429.59C2402.12 1434.41 2403.84 1438.88 2406.25 1443L2400.75 1459.16 2412.78 1471.19 2428.94 1465.69C2433.06 1468.09 2437.53 1469.81 2442.34 1471.19L2449.91 1486.31 2467.09 1486.31 2474.66 1471.19C2479.47 1469.81 2483.94 1468.09 2488.06 1465.69L2504.22 1471.19 2516.59 1459.16 2511.09 1443C2513.5 1438.88 2515.56 1434.06 2516.94 1429.59L2532.06 1422.03 2532.06 1404.84 2516.94 1397.28Z" stroke="#0C3450" stroke-width="3.4375" fill="#D2691E"/><path d="M2381.16 1564.34C2366.72 1564.34 2355.38 1552.66 2355.38 1538.56 2355.38 1524.13 2367.06 1512.78 2381.16 1512.78 2395.59 1512.78 2406.94 1524.47 2406.94 1538.56 2406.94 1552.66 2395.59 1564.34 2381.16 1564.34L2381.16 1564.34ZM2433.75 1509 2439.25 1492.84 2426.88 1480.47 2410.72 1485.97C2406.59 1483.56 2401.78 1481.84 2397.31 1480.47L2389.75 1465.34 2372.56 1465.34 2365 1480.47C2360.19 1481.84 2355.72 1483.56 2351.59 1485.97L2335.44 1480.47 2323.41 1492.5 2328.56 1508.66C2326.16 1512.78 2324.44 1517.59 2323.06 1522.06L2307.94 1529.63 2307.94 1546.81 2323.06 1554.38C2324.44 1559.19 2326.16 1563.66 2328.56 1567.78L2323.41 1583.94 2335.44 1595.97 2351.59 1590.81C2355.72 1593.22 2360.19 1594.94 2365 1596.31L2372.56 1611.44 2389.75 1611.44 2397.31 1596.31C2402.12 1594.94 2406.59 1593.22 2410.72 1590.81L2426.88 1596.31 2438.91 1583.94 2433.75 1568.13C2436.16 1564 2437.88 1559.53 2439.25 1554.72L2454.38 1547.16 2454.38 1529.97 2439.25 1522.41C2437.88 1517.59 2436.16 1513.13 2433.75 1509Z" stroke="#0C3450" stroke-width="3.4375" fill="#D2691E"/></g></g></g><text fill="#0C3450" font-family="ADLaM Display,ADLaM Display_MSFontService,sans-serif" font-weight="400" font-size="330" transform="matrix(1 0 0 1 2366.72 1180)">I</text><g><g><g><path d="M3057.15 1553.1C3059.74 1558.1 3064.7 1561.43 3070.31 1561.94L3132.19 1561.94 3132.19 1589.44 3070.31 1589.44C3054.64 1589.15 3040.3 1580.55 3032.67 1566.85 3025.36 1553.63 3026 1537.45 3034.32 1524.85L3070.07 1462.97 3046.49 1449.22 3104.03 1433.82 3119.43 1491.37 3094.38 1476.96 3058.49 1539.18C3055.42 1543.19 3054.91 1548.59 3057.15 1553.1Z" stroke="#0C3450" stroke-width="3.4375" fill="#D2691E"/><path d="M3105.79 1411.17 3134.56 1357.44C3142.11 1343.86 3156.46 1335.48 3171.99 1335.58 3187.1 1335.89 3200.79 1344.55 3207.54 1358.06L3243.29 1419.93 3266.87 1406.18 3251.47 1463.9 3194.06 1448.5 3219.09 1434.03 3183.03 1371.78C3181.07 1367.13 3176.65 1363.98 3171.62 1363.66 3166.31 1363.93 3161.52 1366.88 3158.9 1371.5L3130.09 1425.23Z" stroke="#0C3450" stroke-width="3.4375" fill="#D2691E"/><path d="M3306.09 1569.6C3298.57 1582.21 3284.85 1589.8 3270.17 1589.44L3197.5 1589.44 3197.5 1616.94 3155.25 1573.97 3197.5 1532.17 3197.5 1561.94 3269.24 1561.94C3274.4 1562.28 3279.31 1559.7 3281.96 1555.27 3284.53 1550.57 3284.37 1544.86 3281.55 1540.32L3250.09 1486.69 3274.4 1472.56 3305.88 1526.15C3307.66 1529.28 3309.06 1532.6 3310.04 1536.05L3310.63 1538.32C3313.23 1548.94 3311.6 1560.16 3306.09 1569.6Z" stroke="#0C3450" stroke-width="3.4375" fill="#D2691E"/></g></g></g><text fill="#0C3450" font-family="ADLaM Display,ADLaM Display_MSFontService,sans-serif" font-weight="400" font-size="330" transform="matrix(1 0 0 1 3033.23 1180)">R</text><text fill="#0C3450" font-family="ADLaM Display,ADLaM Display_MSFontService,sans-serif" font-weight="400" font-size="92" transform="matrix(1 0 0 1 795.583 1802)">Findable</text><text fill="#0C3450" font-family="ADLaM Display,ADLaM Display_MSFontService,sans-serif" font-weight="400" font-size="92" transform="matrix(1 0 0 1 1442.23 1802)">Accessible</text><text fill="#0C3450" font-family="ADLaM Display,ADLaM Display_MSFontService,sans-serif" font-weight="400" font-size="92" transform="matrix(1 0 0 1 2117.09 1794)">Interoperable</text><text fill="#0C3450" font-family="ADLaM Display,ADLaM Display_MSFontService,sans-serif" font-weight="400" font-size="92" transform="matrix(1 0 0 1 2969.9 1802)">Reusable</text><g><g><g><path d="M1846.25 1589.66 1776.81 1520.25 1838 1498.22C1841.14 1497.14 1842.81 1493.72 1841.73 1490.57 1841.13 1488.82 1839.75 1487.44 1838 1486.84L1661.69 1428.06C1661.06 1427.85 1660.4 1427.75 1659.73 1427.75L1659.73 1427.75C1656.43 1427.82 1653.81 1430.56 1653.88 1433.86 1653.89 1434.47 1654 1435.08 1654.2 1435.66L1712.84 1612.14C1713.95 1615.27 1717.38 1616.91 1720.52 1615.8 1722.23 1615.2 1723.58 1613.85 1724.18 1612.14L1746.25 1550.88 1815.62 1620.25Z" stroke="#0C3450" stroke-width="3.4375" fill="#D2691E"/></g></g></g><text fill="#0C3450" font-family="ADLaM Display,ADLaM Display_MSFontService,sans-serif" font-weight="400" font-size="41" transform="matrix(1 0 0 1 3142.87 1856)">CC0 license</text></g></svg>